<?xml version="1.0" standalone="no"?>
<!DOCTYPE svg PUBLIC "-//W3C//DTD SVG 20010904//EN"
 "http://www.w3.org/TR/2001/REC-SVG-20010904/DTD/svg10.dtd">
<svg version="1.0" xmlns="http://www.w3.org/2000/svg"
 width="1920.000000pt" height="1080.000000pt" viewBox="0 0 1920.000000 1080.000000"
 preserveAspectRatio="xMidYMid meet">

<g transform="translate(0.000000,1080.000000) scale(0.100000,-0.100000)"
fill="#000000" stroke="none">
<path d="M1902 8723 l3 -278 443 -3 442 -2 0 -1205 0 -1205 310 0 310 0 0
1205 0 1205 445 0 445 0 0 280 0 280 -1200 0 -1200 0 2 -277z"/>
<path d="M10400 7515 l0 -1485 295 0 295 0 0 358 0 357 108 107 107 107 284
-464 284 -465 349 0 c329 0 348 1 339 18 -5 9 -197 303 -426 652 l-416 634
248 251 c137 137 324 328 418 423 l170 172 -371 0 -371 0 -359 -401 -359 -401
-3 811 -2 811 -295 0 -295 0 0 -1485z"/>
<path d="M5220 8250 c-157 -29 -270 -115 -357 -272 l-34 -63 5 133 6 132 -290
0 -290 0 0 -1075 0 -1075 294 0 295 0 4 613 c4 674 4 671 68 798 87 174 226
249 461 249 l118 0 0 270 0 269 -37 11 c-52 15 -189 21 -243 10z"/>
<path d="M8889 8230 c-396 -45 -700 -292 -822 -665 -47 -144 -58 -212 -64
-410 -8 -262 14 -409 87 -592 91 -228 288 -432 504 -522 133 -55 216 -72 387
-78 239 -8 399 24 576 116 145 76 284 215 362 361 31 57 94 237 105 298 l6 32
-289 0 -288 0 -27 -69 c-77 -197 -220 -291 -423 -278 -204 12 -352 159 -410
406 -26 111 -26 435 1 541 43 174 133 303 254 362 64 32 71 33 192 33 116 0
129 -2 180 -27 96 -47 169 -135 212 -250 l21 -58 289 0 288 0 -6 28 c-68 310
-208 515 -440 647 -88 51 -194 88 -306 110 -98 19 -292 26 -389 15z"/>
<path d="M6427 8215 c-397 -65 -610 -269 -660 -636 l-5 -36 60 -7 c34 -3 157
-6 273 -6 l213 0 6 44 c17 109 111 200 232 225 146 29 342 4 416 -53 68 -51
81 -83 86 -210 l4 -111 -418 -84 c-556 -111 -666 -149 -809 -282 -127 -119
-177 -240 -179 -429 -1 -133 11 -193 62 -300 51 -109 166 -222 282 -278 47
-22 112 -48 145 -57 79 -22 334 -31 434 -16 163 25 303 91 418 196 42 38 65
52 68 43 2 -7 13 -51 22 -98 l18 -85 298 -3 c163 -1 297 -1 297 0 0 2 -10 28
-21 58 -48 125 -51 165 -58 870 l-7 665 -28 90 c-37 122 -86 206 -165 284
-105 104 -213 159 -401 203 -114 26 -452 34 -583 13z m623 -1257 c-1 -199 -37
-314 -129 -411 -91 -96 -205 -141 -361 -141 -131 0 -198 22 -267 89 -59 58
-78 110 -70 193 10 95 73 171 177 212 37 15 589 137 628 139 21 1 22 -2 22
-81z"/>
<path d="M14620 7488 c-30 -4 -81 -9 -113 -12 -32 -3 -74 -10 -95 -15 -20 -6
-53 -13 -72 -16 -19 -3 -43 -8 -53 -11 -11 -3 -29 -7 -40 -9 -20 -3 -87 -25
-127 -42 -8 -3 -25 -8 -37 -10 -37 -6 -207 -74 -224 -89 -8 -7 -31 -19 -50
-26 -19 -6 -56 -24 -82 -40 -26 -15 -52 -28 -57 -28 -6 0 -10 -4 -10 -10 0 -5
-6 -10 -13 -10 -8 0 -33 -14 -55 -30 -23 -17 -42 -27 -42 -23 0 4 -6 0 -12 -8
-7 -9 -44 -40 -83 -69 -125 -97 -286 -248 -362 -340 -25 -30 -62 -73 -82 -95
-20 -22 -48 -56 -61 -75 -13 -19 -30 -41 -37 -48 -7 -7 -13 -17 -13 -22 0 -5
-7 -16 -15 -24 -9 -8 -46 -75 -84 -148 -37 -74 -75 -145 -84 -158 -9 -14 -32
-77 -52 -140 -20 -63 -40 -123 -45 -132 -12 -22 -61 -231 -67 -284 -2 -23 -8
-55 -12 -70 l-7 -29 -145 -3 c-257 -5 -1259 -5 -1265 0 -2 3 -5 47 -5 98 -1
88 -17 159 -32 143 -4 -3 -7 -1 -7 5 0 13 -99 43 -160 48 -95 8 -1246 19
-1640 16 -118 -1 -318 -1 -445 -1 -414 1 -731 -9 -767 -24 -58 -25 -78 -56
-84 -133 -17 -228 -20 -631 -5 -865 1 -23 61 -86 91 -97 14 -5 59 -10 100 -10
947 -16 2705 -17 2705 -2 0 1 25 4 55 6 77 6 148 31 166 60 12 18 17 57 19
161 l2 138 706 0 707 0 5 -25 c3 -14 7 -45 10 -70 13 -105 46 -285 55 -294 6
-6 10 -22 10 -36 0 -29 34 -139 56 -182 8 -15 15 -31 15 -35 3 -16 11 -39 28
-78 10 -22 24 -56 31 -75 7 -19 25 -51 39 -70 14 -19 35 -52 45 -72 11 -21 23
-38 28 -38 5 0 6 -5 3 -10 -3 -6 0 -13 9 -16 8 -3 18 -19 21 -35 4 -16 10 -29
13 -29 4 0 23 -24 42 -53 19 -28 44 -61 55 -73 11 -11 34 -38 50 -59 92 -116
261 -286 344 -346 33 -23 57 -42 92 -74 9 -8 20 -15 25 -15 6 0 19 -8 30 -18
21 -20 138 -92 148 -92 4 0 16 -8 26 -18 28 -25 183 -106 255 -132 96 -35 230
-79 256 -83 13 -3 44 -10 69 -17 25 -7 55 -14 68 -16 12 -2 33 -6 47 -8 14 -3
33 -7 43 -10 88 -25 588 -26 706 -1 12 2 40 6 64 9 23 3 52 11 65 17 12 7 23
12 25 11 2 -3 40 5 97 19 22 6 47 11 55 12 8 2 20 5 25 9 6 3 53 20 105 38
111 38 250 100 250 112 0 4 3 7 8 6 13 -5 162 73 162 85 0 5 3 8 6 4 4 -3 26
7 50 23 23 17 47 30 53 30 6 0 11 4 11 8 0 5 24 24 53 42 93 61 507 482 507
517 0 6 9 18 20 28 11 10 20 22 20 27 0 5 12 28 28 51 15 23 33 51 39 62 19
30 115 224 135 270 67 163 143 429 154 540 3 33 9 85 13 115 9 55 6 360 -3
494 -9 116 -37 246 -98 451 -6 22 -12 42 -13 45 -2 16 -68 167 -76 175 -5 5
-9 16 -9 24 0 20 -47 115 -95 191 -23 36 -42 68 -43 73 -3 12 -76 122 -84 125
-5 2 -8 8 -8 12 0 5 -10 20 -22 34 -13 14 -32 36 -43 50 -34 41 -128 147 -155
172 -57 55 -152 140 -176 159 -15 11 -38 30 -53 42 -63 53 -89 73 -96 73 -5 0
-23 11 -41 25 -18 14 -37 25 -42 25 -5 0 -20 8 -33 19 -37 28 -158 94 -249
134 -62 27 -185 71 -192 69 -4 -1 -28 7 -54 18 -43 19 -84 31 -153 46 -14 3
-28 7 -33 10 -5 3 -23 7 -41 9 -18 2 -43 7 -57 10 -78 20 -172 27 -490 38 -36
1 -90 -1 -120 -5z m465 -528 c247 -38 555 -158 725 -280 153 -110 338 -290
457 -445 45 -58 98 -147 95 -157 -1 -5 2 -8 8 -8 5 0 10 -5 10 -12 0 -6 19
-50 42 -97 51 -105 81 -179 93 -231 1 -8 10 -33 18 -55 76 -199 79 -654 7
-905 -11 -36 -27 -96 -35 -135 -9 -38 -24 -81 -34 -95 -9 -14 -25 -45 -36 -70
-27 -63 -103 -208 -134 -254 -14 -21 -30 -46 -36 -54 -41 -62 -347 -369 -406
-407 -9 -5 -47 -31 -85 -56 -38 -25 -96 -58 -129 -73 -33 -15 -75 -35 -94 -44
-19 -9 -37 -17 -40 -18 -3 0 -19 -6 -36 -13 -16 -6 -41 -15 -55 -20 -14 -5
-34 -12 -45 -17 -11 -4 -29 -9 -40 -11 -11 -2 -47 -12 -80 -22 -77 -25 -141
-35 -283 -45 -30 -3 -55 -6 -57 -8 -4 -3 -195 0 -270 5 -59 4 -160 23 -231 43
-28 8 -62 14 -75 14 -14 0 -29 4 -35 9 -5 5 -42 19 -83 31 -84 25 -313 132
-344 161 -12 10 -25 19 -30 19 -5 0 -23 11 -41 25 -17 14 -41 34 -54 43 -55
40 -262 236 -262 248 0 4 -15 21 -32 39 -47 46 -78 84 -78 94 0 5 -4 11 -9 13
-24 9 -141 216 -182 323 -11 28 -24 59 -29 70 -24 54 -70 212 -90 310 -18 90
-22 146 -23 305 -1 107 5 236 11 285 13 100 82 342 106 377 9 12 16 31 16 41
0 10 6 31 14 45 8 15 28 57 45 94 33 76 103 185 150 238 18 19 46 52 64 72 55
64 191 201 236 238 24 19 53 44 66 55 82 71 175 135 205 140 3 1 23 10 45 21
22 12 67 31 100 44 33 13 69 29 80 36 17 11 142 46 214 60 14 3 29 8 34 11 5
3 69 13 141 23 150 19 386 19 511 0z"/>
<path d="M13684 6124 c-118 -114 -214 -213 -214 -221 0 -20 90 -113 109 -113
9 1 59 41 111 91 l95 89 98 -102 98 -103 -141 -135 c-77 -74 -140 -142 -140
-150 0 -19 100 -120 118 -120 8 0 40 24 73 53 33 28 64 52 69 52 5 0 60 -54
122 -120 62 -67 257 -274 432 -460 176 -187 328 -344 338 -349 15 -7 27 -1 58
29 l40 39 53 -52 c29 -29 59 -52 67 -52 8 0 26 11 40 25 l27 26 149 -160 c122
-131 154 -160 177 -161 22 0 27 4 27 25 0 25 -28 57 -244 282 l-59 62 31 29
c18 17 32 33 32 36 0 3 -23 31 -51 62 -50 55 -59 83 -23 75 10 -3 108 -6 216
-8 185 -4 199 -3 243 18 30 14 56 37 73 62 l27 40 3 344 3 344 -25 52 c-14 29
-41 74 -61 101 -44 60 -46 93 -7 98 l27 3 0 125 0 125 -280 0 -280 0 0 -125
c0 -122 1 -125 23 -128 28 -4 30 -43 4 -89 -9 -17 -30 -55 -47 -85 l-30 -53
-5 -294 -5 -294 -34 39 c-19 21 -174 186 -344 367 -170 180 -319 339 -330 353
l-20 26 62 62 c33 34 61 67 61 73 0 22 -102 124 -121 121 -10 -2 -79 -60 -153
-130 -74 -71 -138 -128 -143 -128 -4 0 -50 45 -102 101 l-93 100 96 90 c57 54
96 99 96 110 0 30 -78 109 -107 109 -18 0 -80 -53 -239 -206z m253 110 c4 -11
-32 -51 -123 -138 -234 -221 -233 -221 -247 -207 -9 10 26 49 168 186 99 96
184 174 188 175 4 0 10 -7 14 -16z m1673 -254 l0 -60 -215 0 -215 0 0 60 0 60
215 0 215 0 0 -60z m-1260 -6 c11 -13 9 -19 -16 -43 -140 -134 -456 -432 -482
-456 -30 -27 -34 -28 -49 -13 -15 15 -7 25 98 125 280 268 424 403 430 403 4
0 12 -7 19 -16z m1200 -149 c0 -35 24 -89 58 -133 35 -44 62 -95 62 -117 0
-13 -21 -15 -149 -15 -135 0 -151 -2 -175 -21 -22 -17 -26 -28 -26 -70 l0 -49
-96 0 -96 0 4 99 c4 96 5 100 45 161 27 40 44 78 49 108 4 26 8 50 11 55 2 4
74 7 159 7 l154 0 0 -25z m-1176 -164 l98 -105 -71 -69 c-73 -71 -80 -84 -59
-105 22 -22 39 -13 110 55 l69 68 84 -90 84 -90 -69 -66 c-70 -67 -80 -85 -58
-107 22 -22 39 -13 109 54 l68 67 78 -83 c43 -45 79 -86 81 -90 1 -4 -29 -36
-68 -73 -71 -66 -80 -83 -58 -105 22 -22 39 -13 110 56 l70 67 85 -90 85 -90
-129 -123 -128 -124 -131 139 c-72 76 -264 280 -427 453 l-297 315 128 122
c70 67 129 121 132 120 3 -1 50 -49 104 -106z m1294 -383 l2 -208 -140 0 -140
0 0 203 c0 112 3 207 7 211 4 3 66 5 137 4 l131 -3 3 -207z m-348 -83 c0 -152
1 -156 25 -180 23 -24 28 -25 175 -25 166 0 165 0 135 -64 -29 -60 -52 -66
-253 -66 l-180 0 -48 53 -49 53 3 192 3 192 94 0 95 0 0 -155z m-195 -495 l29
-30 -42 -43 -42 -42 -32 33 -32 32 39 40 c21 22 42 40 45 40 4 0 19 -14 35
-30z"/>
<path d="M16278 5384 c-34 -18 -40 -52 -54 -289 -3 -54 -7 -102 -9 -106 -3 -3
-7 -33 -10 -65 -7 -62 -20 -125 -34 -159 -5 -11 -28 -67 -52 -125 -53 -130
-82 -181 -125 -226 -18 -20 -34 -40 -36 -44 -4 -11 -299 -310 -306 -310 -2 0
-19 -12 -37 -27 -57 -49 -75 -63 -81 -63 -3 0 -18 -9 -34 -20 -15 -11 -29 -17
-32 -15 -2 3 -22 -4 -43 -15 -22 -11 -45 -20 -53 -20 -7 0 -23 -5 -35 -12 -12
-7 -29 -13 -38 -15 -8 -1 -29 -9 -45 -18 -16 -8 -38 -15 -50 -15 -11 0 -24 -3
-28 -7 -7 -7 -8 -8 -76 -17 -25 -4 -58 -9 -75 -13 -16 -3 -66 -8 -110 -9 -201
-8 -271 -4 -398 22 -100 20 -146 16 -174 -15 -31 -32 -29 -58 6 -90 26 -24
116 -61 166 -67 11 -2 40 -6 65 -10 76 -13 389 -10 465 5 39 7 79 15 90 16 70
11 104 18 135 30 41 15 67 24 78 26 16 3 129 48 169 68 23 12 46 21 50 21 5 0
20 11 35 25 15 14 32 25 38 25 5 0 19 9 30 20 11 11 20 18 20 14 0 -6 65 41
103 75 15 14 27 21 27 17 0 -12 107 92 182 177 24 27 51 56 61 65 9 9 17 20
17 24 0 4 32 52 70 107 39 55 70 102 70 105 0 3 15 38 34 78 19 40 47 107 61
148 88 248 117 676 47 705 -31 13 -57 13 -84 -1z"/>
<path d="M5353 4763 c83 -247 309 -914 502 -1483 l350 -1035 295 -2 295 -3
499 1473 c275 809 501 1478 504 1485 3 9 -66 12 -324 12 l-329 0 -198 -668
c-108 -367 -249 -869 -313 -1117 -64 -247 -119 -453 -123 -457 -4 -4 -62 205
-129 465 -105 402 -246 883 -488 1665 l-35 112 -329 0 -329 0 152 -447z"/>
<path d="M10899 4440 c-396 -45 -700 -292 -822 -665 -47 -144 -58 -212 -64
-410 -8 -262 14 -409 87 -592 91 -228 288 -432 504 -522 133 -55 216 -72 387
-78 239 -8 399 24 576 116 145 76 284 215 362 361 31 57 94 237 105 298 l6 32
-289 0 -288 0 -27 -69 c-77 -197 -220 -291 -423 -278 -204 12 -352 159 -410
406 -26 111 -26 435 1 541 43 174 133 303 254 362 64 32 71 33 192 33 116 0
129 -2 180 -27 96 -47 169 -135 212 -250 l21 -58 289 0 288 0 -6 28 c-68 310
-208 515 -440 647 -88 51 -194 88 -306 110 -98 19 -292 26 -389 15z"/>
<path d="M8437 4425 c-397 -65 -610 -269 -660 -636 l-5 -36 60 -7 c34 -3 157
-6 273 -6 l213 0 6 44 c17 109 111 200 232 225 146 29 342 4 416 -53 68 -51
81 -83 86 -210 l4 -111 -418 -84 c-556 -111 -666 -149 -809 -282 -127 -119
-177 -240 -179 -429 -1 -133 11 -193 62 -300 51 -109 166 -222 282 -278 47
-22 112 -48 145 -57 79 -22 334 -31 434 -16 163 25 303 91 418 196 42 38 65
52 68 43 2 -7 13 -51 22 -98 l18 -85 298 -3 c163 -1 297 -1 297 0 0 2 -10 28
-21 58 -48 125 -51 165 -58 870 l-7 665 -28 90 c-37 122 -86 206 -165 284
-105 104 -213 159 -401 203 -114 26 -452 34 -583 13z m623 -1257 c-1 -199 -37
-314 -129 -411 -91 -96 -205 -141 -361 -141 -131 0 -198 22 -267 89 -59 58
-78 110 -70 193 10 95 73 171 177 212 37 15 589 137 628 139 21 1 22 -2 22
-81z"/>
</g>
</svg>
